# xmcd CD database file
#
# Track frame offsets:
#	150
#	16550
#	29487
#	38317
#	57112
#	67700
#	79057
#	91382
#	104457
#	117770
#	126035
#	136542
#	146327
#	160877
#	170182
#	181415
#	193330
#	205925
#	219415
#	233777
#
# Disc length: 3300 seconds
#
# Revision: 4
# Processed by: cddbd v1.4PL0 Copyright (c) Steve Scherf et al.
# Submitted via: CDex 1.40Release
#
DISCID=040ce214
DTITLE=Coe, David Allen - 20 Road Music Hits
DYEAR=1996
DGENRE=Country
TTITLE0=Drivin' My Life Away
TTITLE1=California Turn-Arounds
TTITLE2=On The Road Again
TTITLE3=Roll On 18 Wheeler
TTITLE4=Six Days On The Road
TTITLE5=Papa Loved Mama
TTITLE6=Endless Black Ribbon
TTITLE7=How Fast Them Trucks Can Go
TTITLE8=Widow Maker
TTITLE9=Willin'
TTITLE10=Movin' On
TTITLE11=Truck Driving Man
TTITLE12=Ramblin' Fever
TTITLE13=Tombstone Every Mile
TTITLE14=Give Me Forty Acres
TTITLE15=18 Wheels Hummin' Home Sweet Home
TTITLE16=Ramblin' Man
TTITLE17=White Line Fever
TTITLE18=The Devil Was To Blame
TTITLE19=In The Heart Of Dixie
EXTD=YEAR: 1996 ID3G: 2
EXTT0=
EXTT1=
EXTT2=
EXTT3=
EXTT4=
EXTT5=
EXTT6=
EXTT7=
EXTT8=
EXTT9=
EXTT10=
EXTT11=
EXTT12=
EXTT13=
EXTT14=
EXTT15=
EXTT16=
EXTT17=
EXTT18=
EXTT19=
PLAYORDER=
